<?xml version="1.0" encoding="UTF-8"?>
<svg width="88px" height="17px" viewBox="0 0 88 17" version="1.1" xmlns="http://www.w3.org/2000/svg" xmlns:xlink="http://www.w3.org/1999/xlink">
    <!-- Generator: Sketch 53 (72520) - https://sketchapp.com -->
    <title>logo</title>
    <desc>Created with Sketch.</desc>
    <g id="Symbols" stroke="none" stroke-width="1" fill="none" fill-rule="evenodd">
        <g id="logo" fill-rule="nonzero">
            <path d="M0,0.397460938 L3.56640625,0.397460938 C5.86524587,0.397460938 7.5732366,0.68212606 8.69042969,1.25146484 C9.80762277,1.82080363 10.727861,2.74641286 11.4511719,4.02832031 C12.1744828,5.31022776 12.5361328,6.80695759 12.5361328,8.51855469 C12.5361328,9.73600869 12.3338236,10.8549754 11.9291992,11.8754883 C11.5245748,12.8960012 10.9659866,13.7428352 10.253418,14.4160156 C9.5408493,15.0891961 8.76920988,15.5546862 7.93847656,15.8125 C7.10774324,16.0703138 5.66830451,16.1992188 3.62011719,16.1992188 L0,16.1992188 L0,0.397460938 Z M2.99707031,3.29785156 L2.99707031,13.2558594 L4.39355469,13.2558594 C5.76856156,13.2558594 6.76578466,13.0983089 7.38525391,12.7832031 C8.00472315,12.4680974 8.51139126,11.9381548 8.90527344,11.1933594 C9.29915562,10.448564 9.49609375,9.53190648 9.49609375,8.44335938 C9.49609375,6.76756975 9.02702292,5.46777806 8.08886719,4.54394531 C7.24381088,3.71321199 5.8867281,3.29785156 4.01757812,3.29785156 L2.99707031,3.29785156 Z M23.7080078,4.51171875 L26.6298828,4.51171875 L26.6298828,16.1992188 L23.7080078,16.1992188 L23.7080078,14.9638672 C23.1350883,15.5081407 22.560387,15.9002267 21.9838867,16.1401367 C21.4073864,16.3800468 20.7825554,16.5 20.109375,16.5 C18.5982997,16.5 17.2913467,15.9145566 16.1884766,14.7436523 C15.0856065,13.5727481 14.5341797,12.1171962 14.5341797,10.3769531 C14.5341797,8.5722566 15.067703,7.09343024 16.1347656,5.94042969 C17.2018283,4.78742913 18.4980392,4.2109375 20.0234375,4.2109375 C20.7252639,4.2109375 21.3841115,4.34342315 22,4.60839844 C22.6158885,4.87337372 23.1852187,5.27083068 23.7080078,5.80078125 L23.7080078,4.51171875 Z M20.625,6.91796875 C19.7154902,6.91796875 18.9599639,7.23844081 18.3583984,7.87939453 C17.7568329,8.52034826 17.4560547,9.34211738 17.4560547,10.3447266 C17.4560547,11.3544972 17.762204,12.1852181 18.3745117,12.8369141 C18.9868195,13.48861 19.7405554,13.8144531 20.6357422,13.8144531 C21.5595749,13.8144531 22.3258433,13.4939811 22.9345703,12.8530273 C23.5432973,12.2120736 23.8476562,11.372401 23.8476562,10.3339844 C23.8476562,9.31705221 23.5432973,8.49349273 22.9345703,7.86328125 C22.3258433,7.23306977 21.5559942,6.91796875 20.625,6.91796875 Z M36.7490234,6.14453125 L34.9335938,7.95996094 C34.1959599,7.22948854 33.5263702,6.86425781 32.9248047,6.86425781 C32.595376,6.86425781 32.337566,6.93408133 32.1513672,7.07373047 C31.9651683,7.2133796 31.8720703,7.38704323 31.8720703,7.59472656 C31.8720703,7.75227943 31.9311518,7.89729751 32.0493164,8.02978516 C32.1674811,8.1622728 32.4593076,8.34309781 32.9248047,8.57226562 L33.9990234,9.109375 C35.1305395,9.66797154 35.90755,10.2373018 36.3300781,10.8173828 C36.7526063,11.3974638 36.9638672,12.0777956 36.9638672,12.8583984 C36.9638672,13.8968151 36.5825233,14.7633429 35.8198242,15.4580078 C35.0571251,16.1526727 34.0348371,16.5 32.7529297,16.5 C31.0484941,16.5 29.6878306,15.833991 28.6708984,14.5019531 L30.4755859,12.5361328 C30.8193377,12.9371765 31.2221657,13.2612292 31.684082,13.5083008 C32.1459984,13.7553723 32.5559878,13.8789062 32.9140625,13.8789062 C33.3007832,13.8789062 33.6123035,13.7858082 33.8486328,13.5996094 C34.0849621,13.4134105 34.203125,13.1985689 34.203125,12.9550781 C34.203125,12.503904 33.7770225,12.0634787 32.9248047,11.6337891 L31.9365234,11.1396484 C30.045889,10.1871697 29.1005859,8.99479883 29.1005859,7.5625 C29.1005859,6.63866726 29.4568649,5.84912437 30.1694336,5.19384766 C30.8820023,4.53857094 31.7932887,4.2109375 32.9033203,4.2109375 C33.6624387,4.2109375 34.376787,4.37743974 35.0463867,4.71044922 C35.7159864,5.0434587 36.2835263,5.52148126 36.7490234,6.14453125 Z M39.2841797,0 L42.1953125,0 L42.1953125,5.69335938 C42.768232,5.19921628 43.3447237,4.82861452 43.9248047,4.58154297 C44.5048857,4.33447142 45.0921194,4.2109375 45.6865234,4.2109375 C46.8466855,4.2109375 47.8242148,4.61197516 48.6191406,5.4140625 C49.2994826,6.10872743 49.6396484,7.12922504 49.6396484,8.47558594 L49.6396484,16.1992188 L46.75,16.1992188 L46.75,11.0751953 C46.75,9.72167292 46.6855475,8.80501542 46.5566406,8.32519531 C46.4277337,7.84537521 46.2075211,7.48730587 45.8959961,7.25097656 C45.5844711,7.01464726 45.1995466,6.89648438 44.7412109,6.89648438 C44.1468069,6.89648438 43.6365581,7.09342251 43.2104492,7.48730469 C42.7843403,7.88118687 42.4889331,8.41829087 42.3242188,9.09863281 C42.2382808,9.44954603 42.1953125,10.2516213 42.1953125,11.5048828 L42.1953125,16.1992188 L39.2841797,16.1992188 L39.2841797,0 Z" id="Dash" fill="#2F3CFF"></path>
            <path d="M52.8408203,0.397460938 L60.6826172,0.397460938 L60.6826172,3.33007812 L55.8164062,3.33007812 L55.8164062,6.19824219 L60.6826172,6.19824219 L60.6826172,9.08789062 L55.8164062,9.08789062 L55.8164062,16.1992188 L52.8408203,16.1992188 L52.8408203,0.397460938 Z M62.7236328,0 L65.65625,0 L65.65625,16.1992188 L62.7236328,16.1992188 L62.7236328,0 Z M76.9462891,4.51171875 L79.8681641,4.51171875 L79.8681641,16.1992188 L76.9462891,16.1992188 L76.9462891,14.9638672 C76.3733695,15.5081407 75.7986682,15.9002267 75.222168,16.1401367 C74.6456677,16.3800468 74.0208367,16.5 73.3476562,16.5 C71.836581,16.5 70.5296279,15.9145566 69.4267578,14.7436523 C68.3238877,13.5727481 67.7724609,12.1171962 67.7724609,10.3769531 C67.7724609,8.5722566 68.3059842,7.09343024 69.3730469,5.94042969 C70.4401095,4.78742913 71.7363205,4.2109375 73.2617188,4.2109375 C73.9635452,4.2109375 74.6223928,4.34342315 75.2382812,4.60839844 C75.8541697,4.87337372 76.4235,5.27083068 76.9462891,5.80078125 L76.9462891,4.51171875 Z M73.8632812,6.91796875 C72.9537715,6.91796875 72.1982452,7.23844081 71.5966797,7.87939453 C70.9951142,8.52034826 70.6943359,9.34211738 70.6943359,10.3447266 C70.6943359,11.3544972 71.0004852,12.1852181 71.612793,12.8369141 C72.2251007,13.48861 72.9788367,13.8144531 73.8740234,13.8144531 C74.7978562,13.8144531 75.5641246,13.4939811 76.1728516,12.8530273 C76.7815786,12.2120736 77.0859375,11.372401 77.0859375,10.3339844 C77.0859375,9.31705221 76.7815786,8.49349273 76.1728516,7.86328125 C75.5641246,7.23306977 74.7942755,6.91796875 73.8632812,6.91796875 Z M83.1875,0.204101562 L86.109375,0.204101562 L86.109375,4.51171875 L87.8496094,4.51171875 L87.8496094,7.03613281 L86.109375,7.03613281 L86.109375,16.1992188 L83.1875,16.1992188 L83.1875,7.03613281 L81.6835938,7.03613281 L81.6835938,4.51171875 L83.1875,4.51171875 L83.1875,0.204101562 Z" id="Flat" fill="#FFB800"></path>
        </g>
    </g>
</svg>