<?xml version="1.0" encoding="UTF-8"?>
<svg width="25px" height="16px" viewBox="0 0 25 16" version="1.1" xmlns="http://www.w3.org/2000/svg" xmlns:xlink="http://www.w3.org/1999/xlink">
    <!-- Generator: Sketch 53 (72520) - https://sketchapp.com -->
    <title>Logo_mini</title>
    <desc>Created with Sketch.</desc>
    <g id="Symbols" stroke="none" stroke-width="1" fill="none" fill-rule="evenodd">
        <g id="Logo_mini" transform="translate(0.833496, 0.198242)" fill-rule="nonzero">
            <path d="M0,0 L3.56640625,0 C5.86524587,0 7.5732366,0.284665122 8.69042969,0.854003906 C9.80762277,1.42334269 10.727861,2.34895192 11.4511719,3.63085938 C12.1744828,4.91276683 12.5361328,6.40949665 12.5361328,8.12109375 C12.5361328,9.33854775 12.3338236,10.4575144 11.9291992,11.4780273 C11.5245748,12.4985403 10.9659866,13.3453742 10.253418,14.0185547 C9.5408493,14.6917351 8.76920988,15.1572253 7.93847656,15.4150391 C7.10774324,15.6728529 5.66830451,15.8017578 3.62011719,15.8017578 L0,15.8017578 L0,0 Z M2.99707031,2.90039062 L2.99707031,12.8583984 L4.39355469,12.8583984 C5.76856156,12.8583984 6.76578466,12.7008479 7.38525391,12.3857422 C8.00472315,12.0706364 8.51139126,11.5406938 8.90527344,10.7958984 C9.29915562,10.051103 9.49609375,9.13444555 9.49609375,8.04589844 C9.49609375,6.37010881 9.02702292,5.07031712 8.08886719,4.14648438 C7.24381088,3.31575105 5.8867281,2.90039062 4.01757812,2.90039062 L2.99707031,2.90039062 Z" id="D" fill="#2F3CFF"></path>
            <polygon id="F" fill="#FFB800" points="15.4365234 0 23.2783203 0 23.2783203 2.93261719 18.4121094 2.93261719 18.4121094 5.80078125 23.2783203 5.80078125 23.2783203 8.69042969 18.4121094 8.69042969 18.4121094 15.8017578 15.4365234 15.8017578"></polygon>
        </g>
    </g>
</svg>