<?xml version="1.0" encoding="UTF-8"?>
<svg width="16px" height="18px" viewBox="0 0 16 18" version="1.1" xmlns="http://www.w3.org/2000/svg" xmlns:xlink="http://www.w3.org/1999/xlink">
    <!-- Generator: Sketch 53 (72520) - https://sketchapp.com -->
    <title>Group 10 Copy</title>
    <desc>Created with Sketch.</desc>
    <defs>
        <path d="M14.2222222,6.54545455 L9.77777778,6.54545455 C9.286858,6.54545455 8.88888889,6.17914207 8.88888889,5.72727273 L8.88888889,1.63636364 L2.66666667,1.63636364 C2.17574689,1.63636364 1.77777778,2.00267611 1.77777778,2.45454545 L1.77777778,15.5454545 C1.77777778,15.9973239 2.17574689,16.3636364 2.66666667,16.3636364 L13.3333333,16.3636364 C13.8242531,16.3636364 14.2222222,15.9973239 14.2222222,15.5454545 L14.2222222,6.54545455 L15.1111111,6.54545455 C15.6020309,6.54545455 16,6.17914207 16,5.72727273 C16,5.61430539 15.9751269,5.50668536 15.9301467,5.40879944 C15.9765874,5.51249931 16,5.61877507 16,5.72727273 L16,15.5454545 C16,16.9010626 14.8060927,18 13.3333333,18 L2.66666667,18 C1.19390733,18 0,16.9010626 0,15.5454545 L0,2.45454545 C0,1.09893743 1.19390733,0 2.66666667,0 L9.77777778,0 C10.0135258,0 10.2396181,0.0862010512 10.4063171,0.239639906 L15.7396505,5.14873082 C15.823,5.22545024 15.8880874,5.31583689 15.9323374,5.4141681 Z M10.6666667,2.79344746 L10.6666667,4.90909091 L12.9651435,4.90909091 L10.6666667,2.79344746 Z M11.5555556,9 C12.0464753,9 12.4444444,9.36631248 12.4444444,9.81818182 C12.4444444,10.2700512 12.0464753,10.6363636 11.5555556,10.6363636 L4.44444444,10.6363636 C3.95352467,10.6363636 3.55555556,10.2700512 3.55555556,9.81818182 C3.55555556,9.36631248 3.95352467,9 4.44444444,9 L11.5555556,9 Z M11.5555556,12.2727273 C12.0464753,12.2727273 12.4444444,12.6390398 12.4444444,13.0909091 C12.4444444,13.5427784 12.0464753,13.9090909 11.5555556,13.9090909 L4.44444444,13.9090909 C3.95352467,13.9090909 3.55555556,13.5427784 3.55555556,13.0909091 C3.55555556,12.6390398 3.95352467,12.2727273 4.44444444,12.2727273 L11.5555556,12.2727273 Z M6.22222222,5.72727273 C6.713142,5.72727273 7.11111111,6.0935852 7.11111111,6.54545455 C7.11111111,6.99732389 6.713142,7.36363636 6.22222222,7.36363636 L4.44444444,7.36363636 C3.95352467,7.36363636 3.55555556,6.99732389 3.55555556,6.54545455 C3.55555556,6.0935852 3.95352467,5.72727273 4.44444444,5.72727273 L6.22222222,5.72727273 Z" id="path-1"></path>
    </defs>
    <g id="Symbols" stroke="none" stroke-width="1" fill="none" fill-rule="evenodd">
        <g id="Group-10-Copy">
            <polygon id="Path-16" fill="#BDC0F3" points="1.08246528 0.818181818 1.08246528 16.8933771 15.3888889 16.8933771 15.3888889 5.72727273 9.74869792 0.53573331 2.17708333 0.53573331"></polygon>
            <mask id="mask-2" fill="white">
                <use xlink:href="#path-1"></use>
            </mask>
            <use id="Combined-Shape" fill="#3844FE" fill-rule="nonzero" xlink:href="#path-1"></use>
        </g>
    </g>
</svg>