<?xml version="1.0" encoding="UTF-8"?>
<svg width="16px" height="15px" viewBox="0 0 16 15" version="1.1" xmlns="http://www.w3.org/2000/svg" xmlns:xlink="http://www.w3.org/1999/xlink">
    <!-- Generator: Sketch 53 (72520) - https://sketchapp.com -->
    <title>6</title>
    <desc>Created with Sketch.</desc>
    <defs>
        <path d="M1.06666667,2.13333333 C0.477562934,2.13333333 0,1.6557704 0,1.06666667 C0,0.477562934 0.477562934,0 1.06666667,0 L14.9333333,0 C15.5224371,0 16,0.477562934 16,1.06666667 C16,1.6557704 15.5224371,2.13333333 14.9333333,2.13333333 L1.06666667,2.13333333 Z M1.06666667,8.53333333 C0.477562934,8.53333333 0,8.0557704 0,7.46666667 C0,6.87756293 0.477562934,6.4 1.06666667,6.4 L14.9333333,6.4 C15.5224371,6.4 16,6.87756293 16,7.46666667 C16,8.0557704 15.5224371,8.53333333 14.9333333,8.53333333 L1.06666667,8.53333333 Z" id="path-1"></path>
    </defs>
    <g id="Symbols" stroke="none" stroke-width="1" fill="none" fill-rule="evenodd">
        <g id="6">
            <g id="burger">
                <mask id="mask-2" fill="white">
                    <use xlink:href="#path-1"></use>
                </mask>
                <use id="Combined-Shape" fill="#2F3CFF" fill-rule="nonzero" xlink:href="#path-1"></use>
                <path d="M1.06666667,14.9333333 L14.9333333,14.9333333 C15.5224371,14.9333333 16,14.4557704 16,13.8666667 C16,13.2775629 15.5224371,12.8 14.9333333,12.8 L1.06666667,12.8 C0.477562934,12.8 0,13.2775629 0,13.8666667 C0,14.4557704 0.477562934,14.9333333 1.06666667,14.9333333 Z" id="Shape" fill="#BDC0F3" fill-rule="nonzero"></path>
            </g>
        </g>
    </g>
</svg>