<?xml version="1.0" encoding="UTF-8"?>
<svg width="16px" height="16px" viewBox="0 0 16 16" version="1.1" xmlns="http://www.w3.org/2000/svg" xmlns:xlink="http://www.w3.org/1999/xlink">
    <!-- Generator: Sketch 53 (72520) - https://sketchapp.com -->
    <title>8</title>
    <desc>Created with Sketch.</desc>
    <g id="Symbols" stroke="none" stroke-width="1" fill="none" fill-rule="evenodd">
        <g id="8">
            <polygon id="Path-29" fill="#BDC0F3" points="2.40900735 11.1146599 12.8640855 11.1146599 12.8640855 4.39430147 8.06652114 0 2.91637968 3.67417279"></polygon>
            <path d="M12,9.41176463 L12,5.88235288 C12,3.54326455 10.1037942,1.64705882 7.76470588,1.64705882 C5.42561755,1.64705882 3.5294118,3.54326455 3.52941176,5.88235287 L3.52941176,9.41176463 C3.52941176,9.92605236 3.39191395,10.4082258 3.1516738,10.8235293 L12.377738,10.8235293 C12.1374978,10.4082258 12,9.92605236 12,9.41176463 Z M14.8235294,12.235294 L0.705882353,12.235294 C-0.235294118,12.235294 -0.235294118,10.8235293 0.705882353,10.8235293 C1.48557847,10.8235293 2.11764706,10.1914607 2.11764706,9.41176463 L2.11764706,5.88235286 C2.11764711,2.76356842 4.64592145,0.235294118 7.76470588,0.235294118 C10.8834903,0.235294118 13.4117647,2.76356842 13.4117647,5.88235287 L13.4117647,9.41176463 C13.4117647,10.1914607 14.0438333,10.8235293 14.8235294,10.8235293 C15.7647059,10.8235293 15.7647059,12.235294 14.8235294,12.235294 Z M9.59647059,14.707133 C9.2176259,15.36022 8.5197197,15.7622044 7.76470588,15.7622044 C7.00969206,15.7622044 6.31178587,15.36022 5.93294118,14.707133 C5.65996176,14.2365462 5.99949848,13.6470587 6.54352941,13.6470587 L8.98588235,13.6470587 C9.52991328,13.6470587 9.86945,14.2365462 9.59647059,14.707133 Z" id="Shape" fill="#2A3BEE" fill-rule="nonzero"></path>
        </g>
    </g>
</svg>