<?xml version="1.0" encoding="UTF-8"?>
<svg width="16px" height="16px" viewBox="0 0 16 16" version="1.1" xmlns="http://www.w3.org/2000/svg" xmlns:xlink="http://www.w3.org/1999/xlink">
    <!-- Generator: Sketch 53 (72520) - https://sketchapp.com -->
    <title>Group Copy</title>
    <desc>Created with Sketch.</desc>
    <g id="Symbols" stroke="none" stroke-width="1" fill="none" fill-rule="evenodd">
        <g id="Group-Copy" fill-rule="nonzero">
            <path d="M0.8,-9.1038288e-14 L6.4,-9.1038288e-14 C6.8418278,-9.1038288e-14 7.2,0.3581722 7.2,0.8 L7.2,6.4 C7.2,6.8418278 6.8418278,7.2 6.4,7.2 L0.8,7.2 C0.3581722,7.2 -9.1038288e-14,6.8418278 -9.1038288e-14,6.4 L-9.1038288e-14,0.8 C-9.1038288e-14,0.3581722 0.3581722,-9.1038288e-14 0.8,-9.1038288e-14 Z" id="Rectangle-path" fill="#2F3CFF"></path>
            <path d="M9.6,-9.1038288e-14 L15.2,-9.1038288e-14 C15.6418278,-9.1038288e-14 16,0.3581722 16,0.8 L16,6.4 C16,6.8418278 15.6418278,7.2 15.2,7.2 L9.6,7.2 C9.1581722,7.2 8.8,6.8418278 8.8,6.4 L8.8,0.8 C8.8,0.3581722 9.1581722,-9.1038288e-14 9.6,-9.1038288e-14 Z" id="Rectangle-path" fill="#3844FE"></path>
            <polygon id="Rectangle-path" fill="#BDC0F3" points="10.4 5.6 14.4 5.6 14.4 1.6 10.4 1.6"></polygon>
            <path d="M9.6,8.8 L15.2,8.8 C15.6418278,8.8 16,9.1581722 16,9.6 L16,15.2 C16,15.6418278 15.6418278,16 15.2,16 L9.6,16 C9.1581722,16 8.8,15.6418278 8.8,15.2 L8.8,9.6 C8.8,9.1581722 9.1581722,8.8 9.6,8.8 Z" id="Rectangle-path" fill="#3844FE"></path>
            <polygon id="Rectangle-path" fill="#BDC0F3" points="10.4 14.4 14.4 14.4 14.4 10.4 10.4 10.4"></polygon>
            <path d="M0.8,8.8 L6.4,8.8 C6.8418278,8.8 7.2,9.1581722 7.2,9.6 L7.2,15.2 C7.2,15.6418278 6.8418278,16 6.4,16 L0.8,16 C0.3581722,16 -9.1038288e-14,15.6418278 -9.1038288e-14,15.2 L-9.1038288e-14,9.6 C-9.1038288e-14,9.1581722 0.3581722,8.8 0.8,8.8 Z" id="Rectangle-path" fill="#2F3CFF"></path>
            <polygon id="Rectangle-path" fill="#BDC0F3" points="1.6 14.4 5.6 14.4 5.6 10.4 1.6 10.4"></polygon>
            <polygon id="Rectangle-path" fill="#BDC0F3" points="1.6 1.6 1.6 5.6 5.6 5.6 5.6 1.6"></polygon>
        </g>
    </g>
</svg>