<?xml version="1.0" encoding="UTF-8"?>
<svg width="16px" height="16px" viewBox="0 0 16 16" version="1.1" xmlns="http://www.w3.org/2000/svg" xmlns:xlink="http://www.w3.org/1999/xlink">
    <!-- Generator: Sketch 53 (72520) - https://sketchapp.com -->
    <title>Group 9 Copy</title>
    <desc>Created with Sketch.</desc>
    <defs>
        <path d="M1.49449366,8.72727273 C1.79492314,11.4449998 3.75925074,13.6612442 6.34620121,14.3347308 C5.24006988,12.6713116 4.56831082,10.7464573 4.40196818,8.72727273 L1.49449366,8.72727273 Z M1.49449366,7.27272727 L4.40006624,7.27272727 C4.56312468,5.26313663 5.23571056,3.33412547 6.3459696,1.66532946 C3.7591335,2.33888804 1.79491418,4.55508131 1.49449366,7.27272727 Z M14.5055063,7.27272727 C14.2050769,4.55500021 12.2407493,2.33875576 9.65379879,1.66526916 C10.7599301,3.32868844 11.4316892,5.25354269 11.5980318,7.27272727 L14.5055063,7.27272727 Z M14.5055063,8.72727273 L11.5999338,8.72727273 C11.4368753,10.7368634 10.7642894,12.6658745 9.6540304,14.3346705 C12.2408665,13.661112 14.2050858,11.4449187 14.5055063,8.72727273 Z M5.8580165,7.27272727 L10.1399334,7.27272727 C9.95724411,5.29950319 9.21430477,3.41957158 7.99998409,1.85510415 C6.78108671,3.42518995 6.0371378,5.31101354 5.8580165,7.27272727 Z M10.1419835,8.72727273 L5.86006657,8.72727273 C6.04275589,10.7004968 6.78569523,12.5804284 8.00001591,14.1448959 C9.21891329,12.5748101 9.9628622,10.6889865 10.1419835,8.72727273 Z M8,16 C3.581722,16 0,12.418278 0,8 C0,3.581722 3.581722,0 8,0 C12.418278,0 16,3.581722 16,8 C16,12.418278 12.418278,16 8,16 Z" id="path-1"></path>
    </defs>
    <g id="Symbols" stroke="none" stroke-width="1" fill="none" fill-rule="evenodd">
        <g id="Group-9-Copy">
            <circle id="Oval" fill="#BDC0F3" cx="8" cy="8" r="8"></circle>
            <mask id="mask-2" fill="white">
                <use xlink:href="#path-1"></use>
            </mask>
            <use id="Combined-Shape" fill="#2F3CFF" fill-rule="nonzero" xlink:href="#path-1"></use>
        </g>
    </g>
</svg>